<mxfile host="app.diagrams.net" agent="Mozilla/5.0 (Windows NT 10.0; Win64; x64) AppleWebKit/537.36 (KHTML, like Gecko) Chrome/126.0.0.0 Safari/537.36" version="24.7.4">
  <diagram name="Page-1" id="Vdn-DOz7AseV69amp3ss">
    <mxGraphModel dx="954" dy="592" grid="1" gridSize="10" guides="1" tooltips="1" connect="1" arrows="1" fold="1" page="1" pageScale="1" pageWidth="850" pageHeight="1100" math="0" shadow="0">
      <root>
        <mxCell id="0" />
        <mxCell id="1" parent="0" />
        <mxCell id="-xNFNFN2mTCa87RhVA3p-5" value="nama depan" style="ellipse;whiteSpace=wrap;html=1;align=center;" vertex="1" parent="1">
          <mxGeometry x="46" y="290" width="100" height="40" as="geometry" />
        </mxCell>
        <mxCell id="-xNFNFN2mTCa87RhVA3p-7" value="nama tengah" style="ellipse;whiteSpace=wrap;html=1;align=center;" vertex="1" parent="1">
          <mxGeometry x="170" y="260" width="100" height="40" as="geometry" />
        </mxCell>
        <mxCell id="-xNFNFN2mTCa87RhVA3p-8" value="nama belakang" style="ellipse;whiteSpace=wrap;html=1;align=center;" vertex="1" parent="1">
          <mxGeometry x="273" y="290" width="100" height="40" as="geometry" />
        </mxCell>
        <mxCell id="-xNFNFN2mTCa87RhVA3p-9" value="nama" style="ellipse;whiteSpace=wrap;html=1;align=center;" vertex="1" parent="1">
          <mxGeometry x="195" y="330" width="50" height="40" as="geometry" />
        </mxCell>
        <mxCell id="-xNFNFN2mTCa87RhVA3p-10" value="Mahasiswa" style="whiteSpace=wrap;html=1;align=center;" vertex="1" parent="1">
          <mxGeometry x="169" y="432" width="100" height="40" as="geometry" />
        </mxCell>
        <mxCell id="-xNFNFN2mTCa87RhVA3p-11" value="" style="endArrow=none;html=1;rounded=0;exitX=0.5;exitY=1;exitDx=0;exitDy=0;entryX=0.5;entryY=0;entryDx=0;entryDy=0;" edge="1" parent="1" source="-xNFNFN2mTCa87RhVA3p-7" target="-xNFNFN2mTCa87RhVA3p-9">
          <mxGeometry relative="1" as="geometry">
            <mxPoint x="340" y="510" as="sourcePoint" />
            <mxPoint x="500" y="510" as="targetPoint" />
          </mxGeometry>
        </mxCell>
        <mxCell id="-xNFNFN2mTCa87RhVA3p-12" value="" style="endArrow=none;html=1;rounded=0;exitX=0;exitY=0.5;exitDx=0;exitDy=0;entryX=1;entryY=0;entryDx=0;entryDy=0;" edge="1" parent="1" source="-xNFNFN2mTCa87RhVA3p-8" target="-xNFNFN2mTCa87RhVA3p-9">
          <mxGeometry relative="1" as="geometry">
            <mxPoint x="340" y="510" as="sourcePoint" />
            <mxPoint x="500" y="510" as="targetPoint" />
          </mxGeometry>
        </mxCell>
        <mxCell id="-xNFNFN2mTCa87RhVA3p-13" value="" style="endArrow=none;html=1;rounded=0;exitX=1;exitY=0.5;exitDx=0;exitDy=0;entryX=0;entryY=0;entryDx=0;entryDy=0;" edge="1" parent="1" source="-xNFNFN2mTCa87RhVA3p-5" target="-xNFNFN2mTCa87RhVA3p-9">
          <mxGeometry relative="1" as="geometry">
            <mxPoint x="330" y="500" as="sourcePoint" />
            <mxPoint x="200" y="350" as="targetPoint" />
          </mxGeometry>
        </mxCell>
        <mxCell id="-xNFNFN2mTCa87RhVA3p-15" value="jurusan" style="ellipse;whiteSpace=wrap;html=1;align=center;" vertex="1" parent="1">
          <mxGeometry x="51" y="430" width="70" height="50" as="geometry" />
        </mxCell>
        <mxCell id="-xNFNFN2mTCa87RhVA3p-16" value="alamat" style="ellipse;whiteSpace=wrap;html=1;align=center;" vertex="1" parent="1">
          <mxGeometry x="52" y="493" width="70" height="50" as="geometry" />
        </mxCell>
        <mxCell id="-xNFNFN2mTCa87RhVA3p-17" value="" style="endArrow=none;html=1;rounded=0;entryX=0;entryY=0.25;entryDx=0;entryDy=0;exitX=1.014;exitY=0.72;exitDx=0;exitDy=0;exitPerimeter=0;" edge="1" parent="1" target="-xNFNFN2mTCa87RhVA3p-10">
          <mxGeometry relative="1" as="geometry">
            <mxPoint x="130.9799999999998" y="406" as="sourcePoint" />
            <mxPoint x="500" y="510" as="targetPoint" />
          </mxGeometry>
        </mxCell>
        <mxCell id="-xNFNFN2mTCa87RhVA3p-21" value="" style="endArrow=none;html=1;rounded=0;exitX=0.5;exitY=1;exitDx=0;exitDy=0;" edge="1" parent="1" source="-xNFNFN2mTCa87RhVA3p-9">
          <mxGeometry relative="1" as="geometry">
            <mxPoint x="340" y="510" as="sourcePoint" />
            <mxPoint x="220" y="370" as="targetPoint" />
          </mxGeometry>
        </mxCell>
        <mxCell id="-xNFNFN2mTCa87RhVA3p-22" value="" style="endArrow=none;html=1;rounded=0;exitX=0.5;exitY=1;exitDx=0;exitDy=0;entryX=0.5;entryY=0;entryDx=0;entryDy=0;" edge="1" parent="1" source="-xNFNFN2mTCa87RhVA3p-9" target="-xNFNFN2mTCa87RhVA3p-10">
          <mxGeometry relative="1" as="geometry">
            <mxPoint x="340" y="510" as="sourcePoint" />
            <mxPoint x="220" y="430" as="targetPoint" />
          </mxGeometry>
        </mxCell>
        <mxCell id="-xNFNFN2mTCa87RhVA3p-24" value="" style="endArrow=none;html=1;rounded=0;exitX=1;exitY=0.5;exitDx=0;exitDy=0;entryX=0;entryY=1;entryDx=0;entryDy=0;" edge="1" parent="1" source="-xNFNFN2mTCa87RhVA3p-16" target="-xNFNFN2mTCa87RhVA3p-10">
          <mxGeometry relative="1" as="geometry">
            <mxPoint x="320" y="460" as="sourcePoint" />
            <mxPoint x="480" y="460" as="targetPoint" />
          </mxGeometry>
        </mxCell>
        <mxCell id="-xNFNFN2mTCa87RhVA3p-25" value="" style="endArrow=none;html=1;rounded=0;entryX=-0.002;entryY=0.585;entryDx=0;entryDy=0;entryPerimeter=0;" edge="1" parent="1" source="-xNFNFN2mTCa87RhVA3p-15" target="-xNFNFN2mTCa87RhVA3p-10">
          <mxGeometry relative="1" as="geometry">
            <mxPoint x="320" y="460" as="sourcePoint" />
            <mxPoint x="170" y="460" as="targetPoint" />
          </mxGeometry>
        </mxCell>
        <mxCell id="-xNFNFN2mTCa87RhVA3p-26" value="nim" style="ellipse;whiteSpace=wrap;html=1;align=center;fontStyle=4;" vertex="1" parent="1">
          <mxGeometry x="52" y="380" width="70" height="40" as="geometry" />
        </mxCell>
        <mxCell id="-xNFNFN2mTCa87RhVA3p-27" value="jurusan" style="ellipse;whiteSpace=wrap;html=1;align=center;" vertex="1" parent="1">
          <mxGeometry x="380" y="280" width="70" height="50" as="geometry" />
        </mxCell>
        <mxCell id="-xNFNFN2mTCa87RhVA3p-28" value="alamat" style="ellipse;whiteSpace=wrap;html=1;align=center;" vertex="1" parent="1">
          <mxGeometry x="332" y="339" width="70" height="50" as="geometry" />
        </mxCell>
        <mxCell id="-xNFNFN2mTCa87RhVA3p-29" value="nama" style="ellipse;whiteSpace=wrap;html=1;align=center;" vertex="1" parent="1">
          <mxGeometry x="501" y="343" width="70" height="50" as="geometry" />
        </mxCell>
        <mxCell id="-xNFNFN2mTCa87RhVA3p-30" value="nim" style="ellipse;whiteSpace=wrap;html=1;align=center;fontStyle=4;" vertex="1" parent="1">
          <mxGeometry x="485" y="285" width="74" height="47" as="geometry" />
        </mxCell>
        <mxCell id="-xNFNFN2mTCa87RhVA3p-32" value="mendaftar" style="shape=rhombus;perimeter=rhombusPerimeter;whiteSpace=wrap;html=1;align=center;" vertex="1" parent="1">
          <mxGeometry x="412" y="413" width="80" height="80" as="geometry" />
        </mxCell>
        <mxCell id="-xNFNFN2mTCa87RhVA3p-34" value="" style="endArrow=none;html=1;rounded=0;exitX=1;exitY=1;exitDx=0;exitDy=0;entryX=0.5;entryY=0;entryDx=0;entryDy=0;" edge="1" parent="1" source="-xNFNFN2mTCa87RhVA3p-27" target="-xNFNFN2mTCa87RhVA3p-32">
          <mxGeometry relative="1" as="geometry">
            <mxPoint x="310" y="620" as="sourcePoint" />
            <mxPoint x="470" y="620" as="targetPoint" />
          </mxGeometry>
        </mxCell>
        <mxCell id="-xNFNFN2mTCa87RhVA3p-35" value="" style="endArrow=none;html=1;rounded=0;exitX=0;exitY=0.5;exitDx=0;exitDy=0;entryX=0.5;entryY=0;entryDx=0;entryDy=0;" edge="1" parent="1" source="-xNFNFN2mTCa87RhVA3p-30" target="-xNFNFN2mTCa87RhVA3p-32">
          <mxGeometry relative="1" as="geometry">
            <mxPoint x="310" y="620" as="sourcePoint" />
            <mxPoint x="470" y="620" as="targetPoint" />
          </mxGeometry>
        </mxCell>
        <mxCell id="-xNFNFN2mTCa87RhVA3p-36" value="" style="endArrow=none;html=1;rounded=0;exitX=0.5;exitY=1;exitDx=0;exitDy=0;entryX=0.5;entryY=0;entryDx=0;entryDy=0;" edge="1" parent="1" source="-xNFNFN2mTCa87RhVA3p-28" target="-xNFNFN2mTCa87RhVA3p-32">
          <mxGeometry relative="1" as="geometry">
            <mxPoint x="310" y="620" as="sourcePoint" />
            <mxPoint x="470" y="620" as="targetPoint" />
          </mxGeometry>
        </mxCell>
        <mxCell id="-xNFNFN2mTCa87RhVA3p-37" value="" style="endArrow=none;html=1;rounded=0;exitX=0.5;exitY=1;exitDx=0;exitDy=0;entryX=0.5;entryY=0;entryDx=0;entryDy=0;" edge="1" parent="1" source="-xNFNFN2mTCa87RhVA3p-29" target="-xNFNFN2mTCa87RhVA3p-32">
          <mxGeometry relative="1" as="geometry">
            <mxPoint x="310" y="620" as="sourcePoint" />
            <mxPoint x="470" y="620" as="targetPoint" />
          </mxGeometry>
        </mxCell>
        <mxCell id="-xNFNFN2mTCa87RhVA3p-38" value="" style="endArrow=none;html=1;rounded=0;exitX=1;exitY=0.5;exitDx=0;exitDy=0;entryX=0;entryY=0.5;entryDx=0;entryDy=0;" edge="1" parent="1" source="-xNFNFN2mTCa87RhVA3p-10" target="-xNFNFN2mTCa87RhVA3p-32">
          <mxGeometry relative="1" as="geometry">
            <mxPoint x="310" y="620" as="sourcePoint" />
            <mxPoint x="470" y="620" as="targetPoint" />
          </mxGeometry>
        </mxCell>
        <mxCell id="-xNFNFN2mTCa87RhVA3p-39" value="Many" style="edgeLabel;html=1;align=center;verticalAlign=middle;resizable=0;points=[];" vertex="1" connectable="0" parent="-xNFNFN2mTCa87RhVA3p-38">
          <mxGeometry x="-0.5288" relative="1" as="geometry">
            <mxPoint x="50" y="8" as="offset" />
          </mxGeometry>
        </mxCell>
        <mxCell id="-xNFNFN2mTCa87RhVA3p-40" value="Anggota&lt;div&gt;perpustakaan&lt;/div&gt;" style="whiteSpace=wrap;html=1;align=center;" vertex="1" parent="1">
          <mxGeometry x="626" y="434" width="100" height="40" as="geometry" />
        </mxCell>
        <mxCell id="-xNFNFN2mTCa87RhVA3p-41" value="" style="endArrow=none;html=1;rounded=0;exitX=1;exitY=0.5;exitDx=0;exitDy=0;entryX=0;entryY=0.5;entryDx=0;entryDy=0;" edge="1" parent="1" source="-xNFNFN2mTCa87RhVA3p-32" target="-xNFNFN2mTCa87RhVA3p-40">
          <mxGeometry relative="1" as="geometry">
            <mxPoint x="310" y="620" as="sourcePoint" />
            <mxPoint x="470" y="620" as="targetPoint" />
          </mxGeometry>
        </mxCell>
        <mxCell id="-xNFNFN2mTCa87RhVA3p-42" value="Many" style="edgeLabel;html=1;align=center;verticalAlign=middle;resizable=0;points=[];" vertex="1" connectable="0" parent="-xNFNFN2mTCa87RhVA3p-41">
          <mxGeometry x="-0.1094" relative="1" as="geometry">
            <mxPoint x="12" y="7" as="offset" />
          </mxGeometry>
        </mxCell>
        <mxCell id="-xNFNFN2mTCa87RhVA3p-48" value="nama" style="ellipse;whiteSpace=wrap;html=1;align=center;" vertex="1" parent="1">
          <mxGeometry x="569" y="280" width="90" height="40" as="geometry" />
        </mxCell>
        <mxCell id="-xNFNFN2mTCa87RhVA3p-49" value="jurusan" style="ellipse;whiteSpace=wrap;html=1;align=center;" vertex="1" parent="1">
          <mxGeometry x="700" y="280" width="90" height="40" as="geometry" />
        </mxCell>
        <mxCell id="-xNFNFN2mTCa87RhVA3p-50" value="nomor anggota" style="ellipse;whiteSpace=wrap;html=1;align=center;fontStyle=4;" vertex="1" parent="1">
          <mxGeometry x="566" y="370" width="89" height="40" as="geometry" />
        </mxCell>
        <mxCell id="-xNFNFN2mTCa87RhVA3p-51" value="masa_berlaku" style="ellipse;whiteSpace=wrap;html=1;align=center;" vertex="1" parent="1">
          <mxGeometry x="718" y="371" width="92" height="40" as="geometry" />
        </mxCell>
        <mxCell id="-xNFNFN2mTCa87RhVA3p-52" value="" style="endArrow=none;html=1;rounded=0;exitX=1;exitY=1;exitDx=0;exitDy=0;entryX=0.5;entryY=0;entryDx=0;entryDy=0;" edge="1" parent="1" source="-xNFNFN2mTCa87RhVA3p-48" target="-xNFNFN2mTCa87RhVA3p-40">
          <mxGeometry relative="1" as="geometry">
            <mxPoint x="310" y="620" as="sourcePoint" />
            <mxPoint x="470" y="620" as="targetPoint" />
          </mxGeometry>
        </mxCell>
        <mxCell id="-xNFNFN2mTCa87RhVA3p-53" value="" style="endArrow=none;html=1;rounded=0;exitX=0;exitY=1;exitDx=0;exitDy=0;entryX=0.5;entryY=0;entryDx=0;entryDy=0;" edge="1" parent="1" source="-xNFNFN2mTCa87RhVA3p-49" target="-xNFNFN2mTCa87RhVA3p-40">
          <mxGeometry relative="1" as="geometry">
            <mxPoint x="310" y="620" as="sourcePoint" />
            <mxPoint x="470" y="620" as="targetPoint" />
          </mxGeometry>
        </mxCell>
        <mxCell id="-xNFNFN2mTCa87RhVA3p-54" value="" style="endArrow=none;html=1;rounded=0;exitX=0.5;exitY=1;exitDx=0;exitDy=0;entryX=0.5;entryY=0;entryDx=0;entryDy=0;" edge="1" parent="1" source="-xNFNFN2mTCa87RhVA3p-50" target="-xNFNFN2mTCa87RhVA3p-40">
          <mxGeometry relative="1" as="geometry">
            <mxPoint x="310" y="620" as="sourcePoint" />
            <mxPoint x="470" y="620" as="targetPoint" />
          </mxGeometry>
        </mxCell>
        <mxCell id="-xNFNFN2mTCa87RhVA3p-55" value="" style="endArrow=none;html=1;rounded=0;exitX=0.5;exitY=1;exitDx=0;exitDy=0;entryX=0.5;entryY=0;entryDx=0;entryDy=0;" edge="1" parent="1" source="-xNFNFN2mTCa87RhVA3p-51" target="-xNFNFN2mTCa87RhVA3p-40">
          <mxGeometry relative="1" as="geometry">
            <mxPoint x="310" y="620" as="sourcePoint" />
            <mxPoint x="470" y="620" as="targetPoint" />
          </mxGeometry>
        </mxCell>
        <mxCell id="-xNFNFN2mTCa87RhVA3p-56" value="meminjam" style="shape=rhombus;perimeter=rhombusPerimeter;whiteSpace=wrap;html=1;align=center;" vertex="1" parent="1">
          <mxGeometry x="639" y="584" width="80" height="80" as="geometry" />
        </mxCell>
        <mxCell id="-xNFNFN2mTCa87RhVA3p-57" value="kode_pemograman" style="ellipse;whiteSpace=wrap;html=1;align=center;" vertex="1" parent="1">
          <mxGeometry x="546" y="540" width="84" height="40" as="geometry" />
        </mxCell>
        <mxCell id="-xNFNFN2mTCa87RhVA3p-58" value="tanggal_kembli" style="ellipse;whiteSpace=wrap;html=1;align=center;" vertex="1" parent="1">
          <mxGeometry x="520" y="600" width="90" height="40" as="geometry" />
        </mxCell>
        <mxCell id="-xNFNFN2mTCa87RhVA3p-59" value="tanggal_pinjam" style="ellipse;whiteSpace=wrap;html=1;align=center;" vertex="1" parent="1">
          <mxGeometry x="530" y="660" width="90" height="40" as="geometry" />
        </mxCell>
        <mxCell id="-xNFNFN2mTCa87RhVA3p-62" value="judul bukui" style="ellipse;whiteSpace=wrap;html=1;align=center;" vertex="1" parent="1">
          <mxGeometry x="750" y="670" width="90" height="40" as="geometry" />
        </mxCell>
        <mxCell id="-xNFNFN2mTCa87RhVA3p-63" value="denda" style="ellipse;whiteSpace=wrap;html=1;align=center;" vertex="1" parent="1">
          <mxGeometry x="720" y="730" width="90" height="40" as="geometry" />
        </mxCell>
        <mxCell id="-xNFNFN2mTCa87RhVA3p-64" value="" style="endArrow=none;html=1;rounded=0;exitX=1;exitY=1;exitDx=0;exitDy=0;entryX=0;entryY=0.5;entryDx=0;entryDy=0;" edge="1" parent="1" source="-xNFNFN2mTCa87RhVA3p-57" target="-xNFNFN2mTCa87RhVA3p-56">
          <mxGeometry relative="1" as="geometry">
            <mxPoint x="310" y="620" as="sourcePoint" />
            <mxPoint x="470" y="620" as="targetPoint" />
          </mxGeometry>
        </mxCell>
        <mxCell id="-xNFNFN2mTCa87RhVA3p-65" value="" style="endArrow=none;html=1;rounded=0;exitX=1;exitY=0.5;exitDx=0;exitDy=0;entryX=0.125;entryY=0.604;entryDx=0;entryDy=0;entryPerimeter=0;" edge="1" parent="1" source="-xNFNFN2mTCa87RhVA3p-58" target="-xNFNFN2mTCa87RhVA3p-56">
          <mxGeometry relative="1" as="geometry">
            <mxPoint x="310" y="620" as="sourcePoint" />
            <mxPoint x="640" y="620" as="targetPoint" />
          </mxGeometry>
        </mxCell>
        <mxCell id="-xNFNFN2mTCa87RhVA3p-66" value="" style="endArrow=none;html=1;rounded=0;exitX=1;exitY=0.5;exitDx=0;exitDy=0;entryX=0.146;entryY=0.638;entryDx=0;entryDy=0;entryPerimeter=0;" edge="1" parent="1" source="-xNFNFN2mTCa87RhVA3p-59" target="-xNFNFN2mTCa87RhVA3p-56">
          <mxGeometry relative="1" as="geometry">
            <mxPoint x="300" y="620" as="sourcePoint" />
            <mxPoint x="460" y="620" as="targetPoint" />
          </mxGeometry>
        </mxCell>
        <mxCell id="-xNFNFN2mTCa87RhVA3p-67" value="" style="endArrow=none;html=1;rounded=0;exitX=0;exitY=0.5;exitDx=0;exitDy=0;entryX=1;entryY=0.5;entryDx=0;entryDy=0;" edge="1" parent="1" source="-xNFNFN2mTCa87RhVA3p-87" target="-xNFNFN2mTCa87RhVA3p-56">
          <mxGeometry relative="1" as="geometry">
            <mxPoint x="733.1801948466052" y="577.1421356237311" as="sourcePoint" />
            <mxPoint x="460" y="620" as="targetPoint" />
          </mxGeometry>
        </mxCell>
        <mxCell id="-xNFNFN2mTCa87RhVA3p-68" value="" style="endArrow=none;html=1;rounded=0;exitX=0;exitY=1;exitDx=0;exitDy=0;entryX=1;entryY=0.5;entryDx=0;entryDy=0;" edge="1" parent="1" source="-xNFNFN2mTCa87RhVA3p-88" target="-xNFNFN2mTCa87RhVA3p-56">
          <mxGeometry relative="1" as="geometry">
            <mxPoint x="747" y="629" as="sourcePoint" />
            <mxPoint x="460" y="620" as="targetPoint" />
          </mxGeometry>
        </mxCell>
        <mxCell id="-xNFNFN2mTCa87RhVA3p-69" value="" style="endArrow=none;html=1;rounded=0;exitX=0;exitY=0.5;exitDx=0;exitDy=0;entryX=1;entryY=1;entryDx=0;entryDy=0;" edge="1" parent="1" source="-xNFNFN2mTCa87RhVA3p-62" target="-xNFNFN2mTCa87RhVA3p-56">
          <mxGeometry relative="1" as="geometry">
            <mxPoint x="300" y="620" as="sourcePoint" />
            <mxPoint x="460" y="620" as="targetPoint" />
          </mxGeometry>
        </mxCell>
        <mxCell id="-xNFNFN2mTCa87RhVA3p-70" value="" style="endArrow=none;html=1;rounded=0;exitX=0.5;exitY=0;exitDx=0;exitDy=0;entryX=1;entryY=1;entryDx=0;entryDy=0;" edge="1" parent="1" source="-xNFNFN2mTCa87RhVA3p-63" target="-xNFNFN2mTCa87RhVA3p-56">
          <mxGeometry relative="1" as="geometry">
            <mxPoint x="300" y="620" as="sourcePoint" />
            <mxPoint x="460" y="620" as="targetPoint" />
          </mxGeometry>
        </mxCell>
        <mxCell id="-xNFNFN2mTCa87RhVA3p-71" value="" style="endArrow=none;html=1;rounded=0;exitX=0.5;exitY=1;exitDx=0;exitDy=0;entryX=0.5;entryY=0;entryDx=0;entryDy=0;" edge="1" parent="1" source="-xNFNFN2mTCa87RhVA3p-40" target="-xNFNFN2mTCa87RhVA3p-56">
          <mxGeometry relative="1" as="geometry">
            <mxPoint x="300" y="620" as="sourcePoint" />
            <mxPoint x="460" y="620" as="targetPoint" />
          </mxGeometry>
        </mxCell>
        <mxCell id="-xNFNFN2mTCa87RhVA3p-72" value="1" style="edgeLabel;html=1;align=center;verticalAlign=middle;resizable=0;points=[];" vertex="1" connectable="0" parent="-xNFNFN2mTCa87RhVA3p-71">
          <mxGeometry x="0.014" y="4" relative="1" as="geometry">
            <mxPoint x="-6" y="-35" as="offset" />
          </mxGeometry>
        </mxCell>
        <mxCell id="-xNFNFN2mTCa87RhVA3p-74" value="buku" style="whiteSpace=wrap;html=1;align=center;" vertex="1" parent="1">
          <mxGeometry x="626" y="804" width="100" height="40" as="geometry" />
        </mxCell>
        <mxCell id="-xNFNFN2mTCa87RhVA3p-75" value="judul buku" style="ellipse;whiteSpace=wrap;html=1;align=center;" vertex="1" parent="1">
          <mxGeometry x="510" y="844" width="100" height="40" as="geometry" />
        </mxCell>
        <mxCell id="-xNFNFN2mTCa87RhVA3p-76" value="nomor buku" style="ellipse;whiteSpace=wrap;html=1;align=center;fontStyle=4;" vertex="1" parent="1">
          <mxGeometry x="510" y="900" width="100" height="40" as="geometry" />
        </mxCell>
        <mxCell id="-xNFNFN2mTCa87RhVA3p-77" value="tahun_terbit" style="ellipse;whiteSpace=wrap;html=1;align=center;" vertex="1" parent="1">
          <mxGeometry x="560.5" y="970" width="100" height="40" as="geometry" />
        </mxCell>
        <mxCell id="-xNFNFN2mTCa87RhVA3p-78" value="penerbit" style="ellipse;whiteSpace=wrap;html=1;align=center;" vertex="1" parent="1">
          <mxGeometry x="690" y="970" width="100" height="40" as="geometry" />
        </mxCell>
        <mxCell id="-xNFNFN2mTCa87RhVA3p-79" value="jenis_buku" style="ellipse;whiteSpace=wrap;html=1;align=center;" vertex="1" parent="1">
          <mxGeometry x="740" y="900" width="100" height="40" as="geometry" />
        </mxCell>
        <mxCell id="-xNFNFN2mTCa87RhVA3p-80" value="pengarang" style="ellipse;whiteSpace=wrap;html=1;align=center;" vertex="1" parent="1">
          <mxGeometry x="730" y="840" width="100" height="40" as="geometry" />
        </mxCell>
        <mxCell id="-xNFNFN2mTCa87RhVA3p-81" value="" style="endArrow=none;html=1;rounded=0;exitX=1;exitY=0.5;exitDx=0;exitDy=0;entryX=0.5;entryY=1;entryDx=0;entryDy=0;" edge="1" parent="1" source="-xNFNFN2mTCa87RhVA3p-75" target="-xNFNFN2mTCa87RhVA3p-74">
          <mxGeometry relative="1" as="geometry">
            <mxPoint x="400" y="900" as="sourcePoint" />
            <mxPoint x="560" y="900" as="targetPoint" />
          </mxGeometry>
        </mxCell>
        <mxCell id="-xNFNFN2mTCa87RhVA3p-82" value="" style="endArrow=none;html=1;rounded=0;exitX=1;exitY=0.5;exitDx=0;exitDy=0;entryX=0.5;entryY=1;entryDx=0;entryDy=0;" edge="1" parent="1" source="-xNFNFN2mTCa87RhVA3p-76" target="-xNFNFN2mTCa87RhVA3p-74">
          <mxGeometry relative="1" as="geometry">
            <mxPoint x="400" y="900" as="sourcePoint" />
            <mxPoint x="560" y="900" as="targetPoint" />
          </mxGeometry>
        </mxCell>
        <mxCell id="-xNFNFN2mTCa87RhVA3p-83" value="" style="endArrow=none;html=1;rounded=0;exitX=0.835;exitY=-0.025;exitDx=0;exitDy=0;exitPerimeter=0;entryX=0.5;entryY=1;entryDx=0;entryDy=0;" edge="1" parent="1" source="-xNFNFN2mTCa87RhVA3p-77" target="-xNFNFN2mTCa87RhVA3p-74">
          <mxGeometry relative="1" as="geometry">
            <mxPoint x="400" y="900" as="sourcePoint" />
            <mxPoint x="560" y="900" as="targetPoint" />
          </mxGeometry>
        </mxCell>
        <mxCell id="-xNFNFN2mTCa87RhVA3p-84" value="" style="endArrow=none;html=1;rounded=0;exitX=0.5;exitY=1;exitDx=0;exitDy=0;entryX=0.5;entryY=0;entryDx=0;entryDy=0;" edge="1" parent="1" source="-xNFNFN2mTCa87RhVA3p-74" target="-xNFNFN2mTCa87RhVA3p-78">
          <mxGeometry relative="1" as="geometry">
            <mxPoint x="400" y="900" as="sourcePoint" />
            <mxPoint x="560" y="900" as="targetPoint" />
          </mxGeometry>
        </mxCell>
        <mxCell id="-xNFNFN2mTCa87RhVA3p-85" value="" style="endArrow=none;html=1;rounded=0;exitX=0.5;exitY=1;exitDx=0;exitDy=0;entryX=0;entryY=0;entryDx=0;entryDy=0;" edge="1" parent="1" source="-xNFNFN2mTCa87RhVA3p-74" target="-xNFNFN2mTCa87RhVA3p-79">
          <mxGeometry relative="1" as="geometry">
            <mxPoint x="400" y="900" as="sourcePoint" />
            <mxPoint x="560" y="900" as="targetPoint" />
          </mxGeometry>
        </mxCell>
        <mxCell id="-xNFNFN2mTCa87RhVA3p-86" value="" style="endArrow=none;html=1;rounded=0;exitX=0.5;exitY=1;exitDx=0;exitDy=0;entryX=0;entryY=0.5;entryDx=0;entryDy=0;" edge="1" parent="1" source="-xNFNFN2mTCa87RhVA3p-74" target="-xNFNFN2mTCa87RhVA3p-80">
          <mxGeometry relative="1" as="geometry">
            <mxPoint x="400" y="900" as="sourcePoint" />
            <mxPoint x="560" y="900" as="targetPoint" />
          </mxGeometry>
        </mxCell>
        <mxCell id="-xNFNFN2mTCa87RhVA3p-87" value="nomor anggota" style="ellipse;whiteSpace=wrap;html=1;align=center;fontStyle=4;" vertex="1" parent="1">
          <mxGeometry x="741" y="550" width="89" height="40" as="geometry" />
        </mxCell>
        <mxCell id="-xNFNFN2mTCa87RhVA3p-88" value="nomor buku" style="ellipse;whiteSpace=wrap;html=1;align=center;fontStyle=4;" vertex="1" parent="1">
          <mxGeometry x="751" y="604" width="89" height="40" as="geometry" />
        </mxCell>
      </root>
    </mxGraphModel>
  </diagram>
</mxfile>
